#N canvas -8 -8 1280 637 10;
#X obj 906 241 print "received_something_else";
#X text 517 91 dunoOSC listens for incoming messages in PD;
#X obj 428 251 unpack f f;
#X obj 519 117 dumpOSC 12001;
#X obj 515 263 unpack f f;
#X obj 592 268 unpack f f;
#X obj 359 341 tabwrite color1;
#X obj 485 341 tabwrite color2;
#X obj 593 340 tabwrite color3;
#X obj 763 379 bang;
#X msg 854 418 stop;
#X obj 863 251 bang;
#X obj 773 507 f;
#X obj 812 507 + 1;
#X floatatom 858 575 5 0 0 0 - - -;
#X obj 772 618 tabread color2;
#X obj 889 619 tabread color3;
#X floatatom 679 653 5 0 0 0 - - -;
#X floatatom 794 655 5 0 0 0 - - -;
#X floatatom 905 652 5 0 0 0 - - -;
#X msg 911 440 0;
#X obj 777 455 metro 100;
#X obj 772 552 mod 320;
#N canvas 952 0 958 966 amplitudeModulation 0;
#X obj -1044 -1271 != 0;
#X obj -857 -1494 inlet;
#X obj -1045 -1310 inlet;
#X obj -768 -1268 != 0;
#X floatatom -766 -1213 5 0 0 0 - - -;
#X obj -770 -1309 inlet;
#X obj -474 -1283 != 0;
#X floatatom -472 -1228 5 0 0 0 - - -;
#X obj -489 -1310 inlet;
#X obj -472 -1255 v play3;
#X obj -1099 -1211 *~;
#X obj -1199 -1169 dac~;
#X obj -1200 -1260 readsf~ 2;
#X msg -1202 -1314 open guitar.wav \, 1;
#X obj -833 -1209 *~;
#X obj -933 -1167 dac~;
#X obj -934 -1258 readsf~ 2;
#X obj -1044 -1237 v play1;
#X obj -766 -1240 v play2;
#X obj -849 -1276 v play2;
#X obj -1115 -1278 v play1;
#X obj -583 -1207 *~;
#X obj -683 -1165 dac~;
#X obj -684 -1256 readsf~ 2;
#X msg -690 -1315 open piano.wav \, 1;
#X obj -599 -1274 v play3;
#X floatatom -1046 -1201 5 0 0 0 - - -;
#X msg -932 -1315 open drum3.wav \, 1;
#X connect 0 0 17 0;
#X connect 1 0 13 0;
#X connect 1 0 27 0;
#X connect 1 0 24 0;
#X connect 2 0 0 0;
#X connect 2 0 10 1;
#X connect 3 0 18 0;
#X connect 5 0 3 0;
#X connect 5 0 14 1;
#X connect 6 0 9 0;
#X connect 8 0 6 0;
#X connect 8 0 21 1;
#X connect 9 0 7 0;
#X connect 10 0 11 0;
#X connect 10 0 11 1;
#X connect 12 0 10 0;
#X connect 12 2 20 0;
#X connect 13 0 12 0;
#X connect 14 0 15 0;
#X connect 14 0 15 1;
#X connect 16 0 14 0;
#X connect 16 2 19 0;
#X connect 17 0 26 0;
#X connect 18 0 4 0;
#X connect 19 0 27 0;
#X connect 20 0 13 0;
#X connect 21 0 22 0;
#X connect 21 0 22 1;
#X connect 23 0 21 0;
#X connect 23 2 25 0;
#X connect 24 0 23 0;
#X connect 25 0 24 0;
#X connect 27 0 16 0;
#X restore 695 907 pd amplitudeModulation;
#X msg 1296 685 0;
#X obj 692 258 bng 15 250 50 0 empty empty empty 17 7 0 10 -262144
-1 -1;
#X obj 779 255 bng 15 250 50 0 empty empty empty 17 7 0 10 -262144
-1 -1;
#X msg 692 296 1;
#X msg 779 294 0;
#X obj 710 856 r start;
#X obj 533 706 expr $f1 *$f2 \; if($f1 == 1 \, $f2 \, 0) \; if($f1
== 0 \, $f2 \, 0);
#X floatatom 594 778 5 0 0 0 - - -;
#X obj 699 338 v modulation;
#X obj 542 634 v modulation;
#X obj 816 296 s startPitch;
#X obj 1296 593 r startPitch;
#X floatatom 472 710 5 0 0 0 - - -;
#X floatatom 656 764 5 0 0 0 - - -;
#X floatatom 814 781 5 0 0 0 - - -;
#X obj 738 713 expr $f1 *$f2 \; if($f1 == 1 \, $f2 \, 0) \; if($f1
== 0 \, $f2 \, 0);
#X obj 925 713 expr $f1 *$f2 \; if($f1 == 1 \, $f2 \, 0) \; if($f1
== 0 \, $f2 \, 0);
#X floatatom 993 771 5 0 0 0 - - -;
#N canvas 0 0 958 966 frequencyModulation 0;
#X obj 113 -4734 phasor~;
#N canvas 0 0 450 300 (subpatch) 0;
#X array sound1 109520 float 2;
#X coords 0 1 109520 -1 200 140 1;
#X restore 49 -4526 graph;
#X obj 105 -4902 soundfiler;
#X floatatom 116 -4833 10 0 0 0 - - -;
#X obj 116 -4791 expr 44100/$f1;
#X obj 112 -4694 *~;
#X obj 105 -4590 dac~;
#X floatatom 61 -4733 5 0 0 0 - - -;
#X floatatom 339 -4898 5 0 0 0 - - -;
#X floatatom 436 -4877 5 0 0 0 - - -;
#X obj 385 -4933 moses 0.5;
#X obj 436 -4828 expr $f1 - 0.5;
#X floatatom 436 -4765 5 0 0 0 - - -;
#X obj 406 -4765 +;
#X floatatom 409 -4680 5 0 0 0 - - -;
#X floatatom 367 -4799 5 0 0 0 - - -;
#X obj 385 -4982 inlet;
#X obj 751 -5081 inlet;
#X obj 105 -4949 inlet;
#X obj 270 -4875 route 0;
#X obj 320 -4829 expr $f1 - 0.5;
#X msg 233 -4826 0;
#N canvas 0 0 450 300 (subpatch) 0;
#X array sound2 78323 float 2;
#X coords 0 1 78323 -1 200 140 1;
#X restore 259 -4525 graph;
#N canvas 0 0 450 300 (subpatch) 0;
#X array sound3 113515 float 2;
#X coords 0 1 113515 -1 200 140 1;
#X restore 466 -4525 graph;
#X obj 602 -4741 phasor~;
#X obj 594 -4888 soundfiler;
#X floatatom 605 -4840 10 0 0 0 - - -;
#X obj 605 -4798 expr 44100/$f1;
#X obj 601 -4701 *~;
#X obj 594 -4597 dac~;
#X floatatom 550 -4740 5 0 0 0 - - -;
#X floatatom 808 -4892 5 0 0 0 - - -;
#X floatatom 905 -4871 5 0 0 0 - - -;
#X obj 854 -4927 moses 0.5;
#X obj 905 -4822 expr $f1 - 0.5;
#X floatatom 905 -4759 5 0 0 0 - - -;
#X obj 849 -4698 +;
#X floatatom 849 -4630 5 0 0 0 - - -;
#X floatatom 844 -4747 5 0 0 0 - - -;
#X obj 854 -4976 inlet;
#X obj 739 -4869 route 0;
#X obj 789 -4823 expr $f1 - 0.5;
#X msg 702 -4820 0;
#X obj 600 -4658 tabread4~ sound2;
#X obj 1050 -4751 phasor~;
#X obj 1042 -4898 soundfiler;
#X floatatom 1053 -4850 10 0 0 0 - - -;
#X obj 1053 -4808 expr 44100/$f1;
#X obj 1049 -4711 *~;
#X obj 1042 -4607 dac~;
#X floatatom 998 -4750 5 0 0 0 - - -;
#X floatatom 1255 -4932 5 0 0 0 - - -;
#X floatatom 1352 -4911 5 0 0 0 - - -;
#X obj 1301 -4967 moses 0.5;
#X obj 1352 -4862 expr $f1 - 0.5;
#X floatatom 1352 -4799 5 0 0 0 - - -;
#X obj 1296 -4738 +;
#X floatatom 1296 -4670 5 0 0 0 - - -;
#X floatatom 1291 -4787 5 0 0 0 - - -;
#X obj 1301 -5016 inlet;
#X obj 1186 -4909 route 0;
#X obj 1236 -4863 expr $f1 - 0.5;
#X msg 1149 -4860 0;
#X obj 1048 -4668 tabread4~ sound3;
#X obj 592 -4947 inlet;
#X obj 1040 -4956 inlet;
#X obj 111 -4651 tabread4~ sound1;
#X connect 0 0 5 0;
#X connect 2 0 3 0;
#X connect 3 0 4 0;
#X connect 3 0 5 1;
#X connect 4 0 0 0;
#X connect 4 0 7 0;
#X connect 4 0 13 1;
#X connect 5 0 66 0;
#X connect 8 0 19 0;
#X connect 9 0 11 0;
#X connect 10 0 8 0;
#X connect 10 1 9 0;
#X connect 11 0 12 0;
#X connect 12 0 13 0;
#X connect 13 0 14 0;
#X connect 13 0 0 0;
#X connect 15 0 13 0;
#X connect 16 0 10 0;
#X connect 17 0 0 0;
#X connect 17 0 24 0;
#X connect 17 0 44 0;
#X connect 18 0 2 0;
#X connect 19 0 21 0;
#X connect 19 1 20 0;
#X connect 20 0 15 0;
#X connect 21 0 0 0;
#X connect 24 0 28 0;
#X connect 25 0 26 0;
#X connect 26 0 27 0;
#X connect 26 0 28 1;
#X connect 27 0 24 0;
#X connect 27 0 30 0;
#X connect 27 0 36 1;
#X connect 28 0 43 0;
#X connect 31 0 40 0;
#X connect 32 0 34 0;
#X connect 33 0 31 0;
#X connect 33 1 32 0;
#X connect 34 0 35 0;
#X connect 35 0 36 0;
#X connect 36 0 37 0;
#X connect 36 0 24 0;
#X connect 38 0 36 0;
#X connect 39 0 33 0;
#X connect 40 0 42 0;
#X connect 40 1 41 0;
#X connect 41 0 38 0;
#X connect 42 0 24 0;
#X connect 43 0 29 0;
#X connect 43 0 29 1;
#X connect 44 0 48 0;
#X connect 45 0 46 0;
#X connect 46 0 47 0;
#X connect 46 0 48 1;
#X connect 47 0 44 0;
#X connect 47 0 50 0;
#X connect 47 0 56 1;
#X connect 48 0 63 0;
#X connect 51 0 60 0;
#X connect 52 0 54 0;
#X connect 53 0 51 0;
#X connect 53 1 52 0;
#X connect 54 0 55 0;
#X connect 55 0 56 0;
#X connect 56 0 57 0;
#X connect 56 0 44 0;
#X connect 58 0 56 0;
#X connect 59 0 53 0;
#X connect 60 0 62 0;
#X connect 60 1 61 0;
#X connect 61 0 58 0;
#X connect 62 0 44 0;
#X connect 63 0 49 0;
#X connect 63 0 49 1;
#X connect 64 0 25 0;
#X connect 65 0 45 0;
#X connect 66 0 6 0;
#X connect 66 0 6 1;
#X restore 1174 844 pd frequencyModulation;
#X floatatom 870 776 5 0 0 0 - - -;
#X floatatom 1052 778 5 0 0 0 - - -;
#X obj 523 172 OSCroute /color1 /color2 /color3 /amplitude /pitch /play
/stop;
#X obj 802 329 bng 15 250 50 0 empty empty empty 17 7 0 10 -262144
-1 -1;
#X msg 925 284 \; color3 const 0;
#X msg 923 323 \; color2 const 0;
#X msg 919 368 \; color1 const 0;
#X msg 1142 729 read -resize guitar.wav sound1;
#X msg 1348 730 read -resize drum3.wav sound2;
#X msg 1545 730 read -resize piano.wav sound3;
#X obj 778 412 send start;
#X obj 939 185 bng 15 250 50 0 empty empty empty 17 7 0 10 -262144
-1 -1;
#N canvas 0 0 450 300 (subpatch) 0;
#X array color2 320 float 3;
#A 0 0 0 0 0 0 0 0 0 0 0 0 0 0 0 0 0 0 0 0 0 0 0 0 0 0 0 0 0 0 0 0
0 0 0 0 0 0 0 0 0 0 0 0 0 0 0 0 0 0 0 0 0 0 0 0 0 0 0 0 0 0 0 0 0 0
0 0 0 0 0 0 0 0 0 0 0 0 0 0 0 0 0 0 0 0 0 0 0 0 0 0 0 0 0 0 0 0 0 0
0 0 0 0 0 0 0 0 0 0 0 0 0 0 0 0 0 0 0 0 0 0 0 0 0 0 0 0 0 0 0 0 0 0
0 0 0 0 0 0 0 0 0 0 0 0 0 0 0 0 0 0 0 0 0 0 0 0 0 0 0 0 0 0 0 0 0 0
0 0 0 0 0 0 0 0 0 0 0 0 0 0 0 0 0 0 0 0 0 0 0 0 0 0 0 0 0 0 0 0 0 0
0 0 0 0 0 0 0 0 0 0 0 0 0 0 0 0 0 0 0 0 0 0 0 0 0 0 0 0 0 0 0 0 0 0
0 0 0 0 0 0 0 0 0 0 0 0 0 0 0 0 0 0 0 0 0 0 0 0 0 0 0 0 0 0 0 0 0 0
0 0 0 0 0 0 0 0 0 0 0 0 0 0 0 0 0 0 0 0 0 0 0 0 0 0 0 0 0 0 0 0 0 0
0 0 0 0 0 0 0 0 0 0 0 0 0 0 0 0 0;
#X coords 0 1 320 0 320 80 1 0 0;
#X restore 83 205 graph;
#N canvas 0 0 450 300 (subpatch) 0;
#X array color3 320 float 3;
#A 0 0 0 0 0 0 0 0 0 0 0 0 0 0 0 0 0 0 0 0 0 0 0 0 0 0 0 0 0 0 0 0
0 0 0 0 0 0 0 0 0 0 0 0 0 0 0 0 0 0 0 0 0 0 0 0 0 0 0 0 0 0 0 0 0 0
0 0 0 0 0 0 0 0 0 0 0 0 0 0 0 0 0 0 0 0 0 0 0 0 0 0 0 0 0 0 0 0 0 0
0 0 0 0 0 0 0 0 0 0 0 0 0 0 0 0 0 0 0 0 0 0 0 0 0 0 0 0 0 0 0 0 0 0
0 0 0 0 0 0 0 0 0 0 0 0 0 0 0 0 0 0 0 0 0 0 0 0 0 0 0 0 0 0 0 0 0 0
0 0 0 0 0 0 0 0 0 0 0 0 0 0 0 0 0 0 0 0 0 0 0 0 0 0 0 0 0 0 0 0 0 0
0 0 0 0 0 0 0 0 0 0 0 0 0 0 0 0 0 0 0 0 0 0 0 0 0 0 0 0 0 0 0 0 0 0
0 0 0 0 0 0 0 0 0 0 0 0 0 0 0 0 0 0 0 0 0 0 0 0 0 0 0 0 0 0 0 0 0 0
0 0 0 0 0 0 0 0 0 0 0 0 0 0 0 0 0 0 0 0 0 0 0 0 0 0 0 0 0 0 0 0 0 0
0 0 0 0 0 0 0 0 0 0 0 0 0 0 0 0 0;
#X coords 0 1 320 0 320 80 1 0 0;
#X restore 85 374 graph;
#N canvas 0 0 450 300 (subpatch) 0;
#X array color1 320 float 3;
#A 0 0 0 0 0 0 0 0 0 0 0 0 0 0 0 0 0 0 0 0 0 0 0 0 0 0 0 0 0 0 0 0
0 0 0 0 0 0 0 0 0 0 0 0 0 0 0 0 0 0 0 0 0 0 0 0 0 0 0 0 0 0 0 0 0 0
0 0 0 0 0 0 0 0 0 0 0 0 0 0 0 0 0 0 0 0 0 0 0 0 0 0 0 0 0 0 0 0 0 0
0 0 0 0 0 0 0 0 0 0 0 0 0 0 0 0 0 0 0 0 0 0 0 0 0 0 0 0 0 0 0 0 0 0
0 0 0 0 0 0 0 0 0 0 0 0 0 0 0 0 0 0 0 0 0 0 0 0 0 0 0 0 0 0 0 0 0 0
0 0 0 0 0 0 0 0 0 0 0 0 0 0 0 0 0 0 0 0 0 0 0 0 0 0 0 0 0 0 0 0 0 0
0 0 0 0 0 0 0 0 0 0 0 0 0 0 0 0 0 0 0 0 0 0 0 0 0 0 0 0 0 0 0 0 0 0
0 0 0 0 0 0 0 0 0 0 0 0 0 0 0 0 0 0 0 0 0 0 0 0 0 0 0 0 0 0 0 0 0 0
0 0 0 0 0 0 0 0 0 0 0 0 0 0 0 0 0 0 0 0 0 0 0 0 0 0 0 0 0 0 0 0 0 0
0 0 0 0 0 0 0 0 0 0 0 0 0 0 0 0 0;
#X coords 0 1 320 0 320 80 1 0 0;
#X restore 83 103 graph;
#X obj 656 616 tabread color1;
#X connect 2 0 6 0;
#X connect 2 1 6 1;
#X connect 3 0 45 0;
#X connect 4 0 7 0;
#X connect 4 1 7 1;
#X connect 5 0 8 0;
#X connect 5 1 8 1;
#X connect 9 0 21 0;
#X connect 9 0 53 0;
#X connect 10 0 21 0;
#X connect 11 0 10 0;
#X connect 11 0 47 0;
#X connect 11 0 48 0;
#X connect 11 0 49 0;
#X connect 11 0 20 0;
#X connect 11 0 24 0;
#X connect 12 0 13 0;
#X connect 12 0 22 0;
#X connect 13 0 12 1;
#X connect 15 0 18 0;
#X connect 15 0 39 1;
#X connect 16 0 19 0;
#X connect 16 0 40 1;
#X connect 20 0 12 0;
#X connect 20 0 23 0;
#X connect 20 0 23 2;
#X connect 20 0 23 3;
#X connect 21 0 12 0;
#X connect 21 0 33 0;
#X connect 22 0 14 0;
#X connect 22 0 15 0;
#X connect 22 0 16 0;
#X connect 22 0 58 0;
#X connect 24 0 42 3;
#X connect 25 0 27 0;
#X connect 26 0 28 0;
#X connect 26 0 34 0;
#X connect 26 0 24 0;
#X connect 27 0 32 0;
#X connect 28 0 32 0;
#X connect 29 0 23 1;
#X connect 30 1 31 0;
#X connect 30 2 37 0;
#X connect 31 0 23 0;
#X connect 33 0 30 0;
#X connect 33 0 36 0;
#X connect 33 0 39 0;
#X connect 33 0 40 0;
#X connect 35 0 50 0;
#X connect 35 0 51 0;
#X connect 35 0 52 0;
#X connect 37 0 42 1;
#X connect 38 0 23 2;
#X connect 39 1 38 0;
#X connect 39 2 43 0;
#X connect 40 1 41 0;
#X connect 40 2 44 0;
#X connect 41 0 23 3;
#X connect 43 0 42 4;
#X connect 44 0 42 6;
#X connect 45 0 2 0;
#X connect 45 1 4 0;
#X connect 45 2 5 0;
#X connect 45 3 25 0;
#X connect 45 4 26 0;
#X connect 45 5 9 0;
#X connect 45 6 11 0;
#X connect 45 7 0 0;
#X connect 46 0 9 0;
#X connect 50 0 42 0;
#X connect 51 0 42 2;
#X connect 52 0 42 5;
#X connect 54 0 11 0;
#X connect 58 0 17 0;
#X connect 58 0 30 1;
