#N canvas -8 0 958 966 10;
#X obj 598 -4933 hsl 128 15 0 1 0 0 empty empty empty -2 -8 0 10 -262144
-1 -1 0 1;
#X msg 209 -4850 read -resize guitar.wav sound;
#X msg 360 -4911 0;
#X msg 207 -4925 1;
#N canvas 0 0 1920 976 frequencyModulation 0;
#X obj 287 -4733 phasor~;
#N canvas 0 0 450 300 (subpatch) 0;
#X array sound 109520 float 2;
#X coords 0 1 109520 -1 200 140 1;
#X restore 24 -5090 graph;
#X obj 279 -4880 soundfiler;
#X floatatom 290 -4832 10 0 0 0 - - -;
#X obj 290 -4790 expr 44100/$f1;
#X obj 286 -4693 *~;
#X obj 285 -4650 tabread4~ sound;
#X obj 279 -4589 dac~;
#X floatatom 205 -4722 5 0 0 0 - - -;
#X floatatom 539 -4958 5 0 0 0 - - -;
#X floatatom 677 -4937 5 0 0 0 - - -;
#X obj 585 -4993 moses 0.5;
#X obj 677 -4896 expr $f1 - 0.5;
#X floatatom 692 -4825 5 0 0 0 - - -;
#X obj 580 -4764 +;
#X floatatom 580 -4696 5 0 0 0 - - -;
#X floatatom 576 -4829 5 0 0 0 - - -;
#X obj 491 -4904 expr $f1 \; if ($f1 > 0 \, $f1 - 0.5 \, 0);
#X text 679 -4749 use 0 as the mid line of the pith;
#X obj 582 -5113 inlet;
#X obj 434 -4989 inlet;
#X obj 280 -4994 inlet;
#X connect 0 0 5 0;
#X connect 2 0 3 0;
#X connect 3 0 4 0;
#X connect 3 0 5 1;
#X connect 4 0 0 0;
#X connect 4 0 8 0;
#X connect 4 0 14 1;
#X connect 5 0 6 0;
#X connect 6 0 7 0;
#X connect 6 0 7 1;
#X connect 9 0 17 0;
#X connect 10 0 12 0;
#X connect 11 0 9 0;
#X connect 11 1 10 0;
#X connect 12 0 13 0;
#X connect 13 0 14 0;
#X connect 14 0 15 0;
#X connect 14 0 0 0;
#X connect 16 0 14 0;
#X connect 17 1 16 0;
#X connect 19 0 11 0;
#X connect 20 0 0 0;
#X connect 21 0 2 0;
#X restore 409 -4791 pd frequencyModulation;
#X connect 0 0 4 2;
#X connect 1 0 4 0;
#X connect 2 0 4 1;
#X connect 3 0 1 0;
